<svg width="576" height="44" viewBox="0 0 576 44" fill="none" xmlns="http://www.w3.org/2000/svg">
<path d="M8.83203 42.3678H9.15203V43.0078H3.05176e-05V42.3678H0.32003C0.661364 42.3678 0.960031 42.2611 1.21603 42.0478C1.47203 41.7918 1.68536 41.4931 1.85603 41.1518C2.06936 40.8105 2.2187 40.4478 2.30403 40.0638C2.38936 39.6798 2.43203 39.3171 2.43203 38.9758V4.73581C2.43203 4.43714 2.38936 4.09581 2.30403 3.71181C2.2187 3.32781 2.0907 2.96514 1.92003 2.62381C1.74936 2.28248 1.5147 2.00514 1.21603 1.79181C0.960031 1.53581 0.661364 1.40781 0.32003 1.40781H3.05176e-05V0.767811H24.576V6.71981H23.936C23.936 5.73848 23.5947 4.88514 22.912 4.15981C22.272 3.39181 21.248 3.00781 19.84 3.00781H6.72003V19.1998H17.344C18.3254 19.1998 19.136 18.9011 19.776 18.3038C20.4587 17.7065 20.8 17.0025 20.8 16.1918H21.44V24.1918H20.8C20.8 23.4238 20.48 22.7625 19.84 22.2078C19.2 21.6531 18.368 21.3758 17.344 21.3758H6.72003V38.9758C6.72003 39.3171 6.7627 39.6798 6.84803 40.0638C6.93336 40.4478 7.06136 40.8105 7.23203 41.1518C7.44536 41.4931 7.68003 41.7918 7.93603 42.0478C8.19203 42.2611 8.4907 42.3678 8.83203 42.3678ZM29.6295 0.767811H38.7815V1.40781H38.4615C38.1629 1.40781 37.8855 1.53581 37.6295 1.79181C37.3735 2.00514 37.1602 2.28248 36.9895 2.62381C36.8189 2.92248 36.6695 3.28514 36.5415 3.71181C36.4562 4.09581 36.4135 4.43714 36.4135 4.73581V38.8478C36.4135 39.1891 36.4562 39.5731 36.5415 39.9998C36.6269 40.3838 36.7549 40.7465 36.9255 41.0878C37.1389 41.4291 37.3522 41.7278 37.5655 41.9838C37.8215 42.2398 38.1202 42.3678 38.4615 42.3678H38.7815V43.0078H29.6295V42.3678H29.9495C30.2909 42.3678 30.5895 42.2611 30.8455 42.0478C31.1015 41.7918 31.3149 41.4931 31.4855 41.1518C31.6989 40.7678 31.8482 40.3838 31.9335 39.9998C32.0189 39.5731 32.0615 39.1891 32.0615 38.8478V4.73581C32.0615 4.43714 32.0189 4.09581 31.9335 3.71181C31.8482 3.32781 31.6989 2.96514 31.4855 2.62381C31.3149 2.28248 31.1015 2.00514 30.8455 1.79181C30.5895 1.53581 30.2909 1.40781 29.9495 1.40781H29.6295V0.767811ZM51.656 42.3678H51.976V43.0078H44.872V42.3678H45.192C45.4907 42.3678 45.768 42.2398 46.024 41.9838C46.3227 41.7278 46.5574 41.4291 46.728 41.0878C46.8987 40.7465 47.0267 40.3838 47.112 39.9998C47.24 39.5731 47.304 39.1891 47.304 38.8478V4.73581C47.304 4.43714 47.2614 4.09581 47.176 3.71181C47.1334 3.32781 47.0267 2.96514 46.856 2.62381C46.6854 2.28248 46.4507 2.00514 46.152 1.79181C45.8534 1.53581 45.4907 1.40781 45.064 1.40781H44.744V0.767811H51.208L74.44 37.3758V4.73581C74.44 4.43714 74.376 4.09581 74.248 3.71181C74.1627 3.32781 74.0134 2.96514 73.8 2.62381C73.6294 2.28248 73.416 2.00514 73.16 1.79181C72.904 1.53581 72.6054 1.40781 72.264 1.40781H71.944V0.767811H79.112V1.40781H78.792C78.4507 1.40781 78.152 1.53581 77.896 1.79181C77.64 2.00514 77.4054 2.28248 77.192 2.62381C77.0214 2.96514 76.8934 3.32781 76.808 3.71181C76.7227 4.09581 76.68 4.43714 76.68 4.73581V43.0078H72.712L49.544 6.27181V38.8478C49.544 39.1891 49.5867 39.5731 49.672 39.9998C49.7574 40.3838 49.8854 40.7465 50.056 41.0878C50.2694 41.4291 50.504 41.7278 50.76 41.9838C51.016 42.2398 51.3147 42.3678 51.656 42.3678ZM109.572 42.3678H109.892C110.916 42.3678 111.428 41.8985 111.428 40.9598C111.428 40.6185 111.364 40.2558 111.236 39.8718L105.476 24.3198H94.2755L88.7075 39.6158C88.5795 39.9571 88.5155 40.2771 88.5155 40.5758C88.5155 41.1305 88.6649 41.5785 88.9635 41.9198C89.2622 42.2185 89.5822 42.3678 89.9235 42.3678H90.2435V43.0078H83.1395V42.3678H83.4595C84.0142 42.3678 84.5475 42.0478 85.0595 41.4078C85.6142 40.7251 86.0622 39.9358 86.4035 39.0398L101.06 -0.000190735L115.396 38.6558C115.694 39.5091 116.1 40.3411 116.612 41.1518C117.166 41.9625 117.87 42.3678 118.724 42.3678H119.044V43.0078H109.572V42.3678ZM94.9155 22.1438H104.772L99.8435 8.76781L94.9155 22.1438ZM129.594 42.3678H129.914V43.0078H122.81V42.3678H123.13C123.428 42.3678 123.706 42.2398 123.962 41.9838C124.26 41.7278 124.495 41.4291 124.666 41.0878C124.836 40.7465 124.964 40.3838 125.05 39.9998C125.178 39.5731 125.242 39.1891 125.242 38.8478V4.73581C125.242 4.43714 125.199 4.09581 125.114 3.71181C125.071 3.32781 124.964 2.96514 124.794 2.62381C124.623 2.28248 124.388 2.00514 124.09 1.79181C123.791 1.53581 123.428 1.40781 123.002 1.40781H122.682V0.767811H129.146L152.378 37.3758V4.73581C152.378 4.43714 152.314 4.09581 152.186 3.71181C152.1 3.32781 151.951 2.96514 151.738 2.62381C151.567 2.28248 151.354 2.00514 151.098 1.79181C150.842 1.53581 150.543 1.40781 150.202 1.40781H149.882V0.767811H157.05V1.40781H156.73C156.388 1.40781 156.09 1.53581 155.834 1.79181C155.578 2.00514 155.343 2.28248 155.13 2.62381C154.959 2.96514 154.831 3.32781 154.746 3.71181C154.66 4.09581 154.618 4.43714 154.618 4.73581V43.0078H150.65L127.482 6.27181V38.8478C127.482 39.1891 127.524 39.5731 127.61 39.9998C127.695 40.3838 127.823 40.7465 127.994 41.0878C128.207 41.4291 128.442 41.7278 128.698 41.9838C128.954 42.2398 129.252 42.3678 129.594 42.3678ZM185.589 2.43181C182.432 2.43181 179.68 3.00781 177.333 4.15981C175.029 5.26914 173.109 6.74114 171.573 8.57581C170.037 10.3678 168.885 12.3945 168.117 14.6558C167.392 16.9171 167.029 19.1571 167.029 21.3758C167.029 23.8931 167.52 26.3678 168.501 28.7998C169.482 31.1891 170.826 33.3225 172.533 35.1998C174.282 37.0345 176.309 38.5278 178.613 39.6798C180.917 40.7891 183.413 41.3438 186.101 41.3438C186.869 41.3438 187.765 41.2585 188.789 41.0878C189.856 40.9171 190.901 40.5971 191.925 40.1278C192.949 39.6158 193.888 38.9118 194.741 38.0158C195.637 37.1198 196.32 35.9465 196.789 34.4958H197.429V41.5998C196.789 41.5998 196.106 41.6851 195.381 41.8558C194.698 42.0265 193.93 42.2185 193.077 42.4318C191.968 42.7305 190.73 43.0078 189.365 43.2638C188.042 43.5198 186.634 43.6478 185.141 43.6478C181.429 43.6478 178.165 43.0078 175.349 41.7278C172.533 40.4478 170.186 38.7838 168.309 36.7358C166.432 34.6878 165.024 32.3838 164.085 29.8238C163.146 27.2211 162.677 24.5971 162.677 21.9518C162.677 19.3065 163.146 16.6825 164.085 14.0798C165.024 11.4771 166.453 9.15181 168.373 7.10381C170.293 5.01314 172.704 3.32781 175.605 2.04781C178.506 0.767811 181.92 0.127811 185.845 0.127811C187.253 0.127811 188.512 0.255811 189.621 0.51181C190.773 0.76781 191.797 1.02381 192.693 1.27981C193.333 1.49314 193.909 1.66381 194.421 1.79181C194.976 1.87714 195.509 1.91981 196.021 1.91981V9.02381H195.381C195.125 7.70114 194.656 6.61314 193.973 5.75981C193.29 4.86381 192.48 4.18114 191.541 3.71181C190.645 3.24248 189.664 2.92248 188.597 2.75181C187.573 2.53848 186.57 2.43181 185.589 2.43181ZM203.192 0.767811H212.344V1.40781H212.024C211.725 1.40781 211.448 1.53581 211.192 1.79181C210.936 2.00514 210.723 2.28248 210.552 2.62381C210.381 2.92248 210.232 3.28514 210.104 3.71181C210.019 4.09581 209.976 4.43714 209.976 4.73581V38.8478C209.976 39.1891 210.019 39.5731 210.104 39.9998C210.189 40.3838 210.317 40.7465 210.488 41.0878C210.701 41.4291 210.915 41.7278 211.128 41.9838C211.384 42.2398 211.683 42.3678 212.024 42.3678H212.344V43.0078H203.192V42.3678H203.512C203.853 42.3678 204.152 42.2611 204.408 42.0478C204.664 41.7918 204.877 41.4931 205.048 41.1518C205.261 40.7678 205.411 40.3838 205.496 39.9998C205.581 39.5731 205.624 39.1891 205.624 38.8478V4.73581C205.624 4.43714 205.581 4.09581 205.496 3.71181C205.411 3.32781 205.261 2.96514 205.048 2.62381C204.877 2.28248 204.664 2.00514 204.408 1.79181C204.152 1.53581 203.853 1.40781 203.512 1.40781H203.192V0.767811ZM242.947 42.3678H243.267C244.291 42.3678 244.803 41.8985 244.803 40.9598C244.803 40.6185 244.739 40.2558 244.611 39.8718L238.851 24.3198H227.651L222.083 39.6158C221.955 39.9571 221.891 40.2771 221.891 40.5758C221.891 41.1305 222.04 41.5785 222.339 41.9198C222.637 42.2185 222.957 42.3678 223.299 42.3678H223.619V43.0078H216.515V42.3678H216.835C217.389 42.3678 217.923 42.0478 218.435 41.4078C218.989 40.7251 219.437 39.9358 219.779 39.0398L234.435 -0.000190735L248.771 38.6558C249.069 39.5091 249.475 40.3411 249.987 41.1518C250.541 41.9625 251.245 42.3678 252.099 42.3678H252.419V43.0078H242.947V42.3678ZM228.291 22.1438H238.147L233.219 8.76781L228.291 22.1438ZM256.249 42.3678H256.569C256.91 42.3678 257.209 42.2611 257.465 42.0478C257.721 41.7918 257.934 41.4931 258.105 41.1518C258.318 40.8105 258.467 40.4478 258.553 40.0638C258.681 39.6798 258.745 39.3171 258.745 38.9758V4.73581C258.745 4.43714 258.681 4.09581 258.553 3.71181C258.467 3.32781 258.318 2.96514 258.105 2.62381C257.934 2.28248 257.721 2.00514 257.465 1.79181C257.209 1.53581 256.91 1.40781 256.569 1.40781H256.249V0.767811H265.465V1.40781H265.145C264.803 1.40781 264.505 1.53581 264.249 1.79181C263.993 2.00514 263.779 2.28248 263.609 2.62381C263.438 2.96514 263.289 3.32781 263.161 3.71181C263.075 4.09581 263.033 4.43714 263.033 4.73581V40.6398H277.049C277.859 40.6398 278.563 40.4478 279.161 40.0638C279.758 39.6798 280.249 39.2105 280.633 38.6558C281.059 38.0585 281.358 37.4398 281.529 36.7998C281.742 36.1171 281.849 35.4985 281.849 34.9438H282.489V43.0078H256.249V42.3678ZM324.192 0.127811C327.52 0.127811 330.506 0.725145 333.152 1.91981C335.797 3.07181 338.037 4.65048 339.872 6.65581C341.749 8.61848 343.178 10.9225 344.16 13.5678C345.184 16.1705 345.696 18.9011 345.696 21.7598C345.696 24.9598 345.098 27.9038 343.904 30.5918C342.752 33.2798 341.152 35.5838 339.104 37.5038C337.056 39.4238 334.666 40.9385 331.936 42.0478C329.248 43.1145 326.368 43.6478 323.296 43.6478C320.01 43.6478 317.045 43.0505 314.4 41.8558C311.797 40.6611 309.578 39.0825 307.744 37.1198C305.952 35.1571 304.565 32.8958 303.584 30.3358C302.602 27.7758 302.112 25.1091 302.112 22.3358C302.112 19.6051 302.602 16.9171 303.584 14.2718C304.565 11.5838 305.994 9.19448 307.872 7.10381C309.792 5.01314 312.117 3.32781 314.848 2.04781C317.578 0.767811 320.693 0.127811 324.192 0.127811ZM324.128 41.4078C326.986 41.2798 329.482 40.6398 331.616 39.4878C333.792 38.2931 335.605 36.7998 337.056 35.0078C338.506 33.1731 339.573 31.1678 340.256 28.9918C340.981 26.8158 341.344 24.6611 341.344 22.5278C341.344 20.1811 340.917 17.8131 340.064 15.4238C339.21 13.0345 337.994 10.8798 336.416 8.95981C334.837 6.99715 332.938 5.41848 330.72 4.22381C328.544 2.98648 326.09 2.36781 323.36 2.36781C320.714 2.36781 318.346 2.96514 316.256 4.15981C314.165 5.31181 312.373 6.80514 310.88 8.63981C309.429 10.4745 308.32 12.5225 307.552 14.7838C306.784 17.0451 306.4 19.2638 306.4 21.4398C306.4 23.7865 306.848 26.1545 307.744 28.5438C308.64 30.8905 309.877 33.0238 311.456 34.9438C313.034 36.8638 314.89 38.4211 317.024 39.6158C319.2 40.8105 321.568 41.4078 324.128 41.4078ZM351.311 0.767811H360.399V1.40781H360.079C359.738 1.40781 359.439 1.53581 359.183 1.79181C358.927 2.00514 358.692 2.28248 358.479 2.62381C358.308 2.96514 358.18 3.32781 358.095 3.71181C358.01 4.09581 357.967 4.43714 357.967 4.73581V30.0158C357.967 31.6798 358.138 33.2158 358.479 34.6238C358.82 36.0318 359.396 37.2478 360.207 38.2718C361.018 39.2958 362.084 40.1065 363.407 40.7038C364.73 41.2585 366.351 41.5358 368.271 41.5358C370.404 41.5358 372.111 41.1945 373.391 40.5118C374.671 39.8291 375.652 38.9545 376.335 37.8878C377.018 36.7785 377.466 35.5411 377.679 34.1758C377.892 32.8105 377.999 31.4665 377.999 30.1438V4.73581C377.999 4.43714 377.956 4.09581 377.871 3.71181C377.786 3.32781 377.636 2.96514 377.423 2.62381C377.252 2.28248 377.039 2.00514 376.783 1.79181C376.527 1.53581 376.25 1.40781 375.951 1.40781H375.631V0.767811H382.607V1.40781H382.287C381.946 1.40781 381.647 1.53581 381.391 1.79181C381.178 2.00514 380.964 2.28248 380.751 2.62381C380.58 2.96514 380.452 3.32781 380.367 3.71181C380.282 4.09581 380.239 4.43714 380.239 4.73581V29.9518C380.239 32.7251 379.898 35.0078 379.215 36.7998C378.532 38.5491 377.594 39.9358 376.399 40.9598C375.204 41.9838 373.796 42.6878 372.175 43.0718C370.596 43.4558 368.911 43.6478 367.119 43.6478C365.199 43.6478 363.407 43.4345 361.743 43.0078C360.122 42.6238 358.714 41.9198 357.519 40.8958C356.324 39.8718 355.386 38.4851 354.703 36.7358C354.02 34.9438 353.679 32.7038 353.679 30.0158V4.73581C353.679 4.43714 353.636 4.09581 353.551 3.71181C353.466 3.32781 353.316 2.96514 353.103 2.62381C352.932 2.28248 352.719 2.00514 352.463 1.79181C352.207 1.53581 351.93 1.40781 351.631 1.40781H351.311V0.767811ZM404.878 42.3678H405.198V43.0078H396.11V42.3678H396.43C396.771 42.3678 397.07 42.2398 397.326 41.9838C397.582 41.7278 397.795 41.4291 397.966 41.0878C398.179 40.7465 398.329 40.3838 398.414 39.9998C398.499 39.5731 398.542 39.1891 398.542 38.8478V3.13581H391.118C390.435 3.13581 389.838 3.28514 389.326 3.58381C388.814 3.88248 388.387 4.26648 388.046 4.73581C387.705 5.16248 387.449 5.65314 387.278 6.20781C387.107 6.71981 387.022 7.23181 387.022 7.74381H386.382V0.767811H415.118V7.74381H414.478C414.478 7.23181 414.393 6.71981 414.222 6.20781C414.051 5.65314 413.795 5.16248 413.454 4.73581C413.113 4.26648 412.686 3.88248 412.174 3.58381C411.662 3.28514 411.065 3.13581 410.382 3.13581H402.83V38.8478C402.83 39.1891 402.873 39.5731 402.958 39.9998C403.043 40.3838 403.171 40.7465 403.342 41.0878C403.555 41.4291 403.769 41.7278 403.982 41.9838C404.238 42.2398 404.537 42.3678 404.878 42.3678ZM418.624 42.3678H418.944C419.285 42.3678 419.584 42.2611 419.84 42.0478C420.096 41.7918 420.309 41.4931 420.48 41.1518C420.693 40.8105 420.842 40.4478 420.928 40.0638C421.056 39.6798 421.12 39.3171 421.12 38.9758V4.73581C421.12 4.43714 421.056 4.09581 420.928 3.71181C420.842 3.32781 420.693 2.96514 420.48 2.62381C420.309 2.28248 420.096 2.00514 419.84 1.79181C419.584 1.53581 419.285 1.40781 418.944 1.40781H418.624V0.767811H427.84V1.40781H427.52C427.178 1.40781 426.88 1.53581 426.624 1.79181C426.368 2.00514 426.154 2.28248 425.984 2.62381C425.813 2.96514 425.664 3.32781 425.536 3.71181C425.45 4.09581 425.408 4.43714 425.408 4.73581V40.6398H439.424C440.234 40.6398 440.938 40.4478 441.536 40.0638C442.133 39.6798 442.624 39.2105 443.008 38.6558C443.434 38.0585 443.733 37.4398 443.904 36.7998C444.117 36.1171 444.224 35.4985 444.224 34.9438H444.864V43.0078H418.624V42.3678ZM467.317 0.127811C470.645 0.127811 473.631 0.725145 476.277 1.91981C478.922 3.07181 481.162 4.65048 482.997 6.65581C484.874 8.61848 486.303 10.9225 487.285 13.5678C488.309 16.1705 488.821 18.9011 488.821 21.7598C488.821 24.9598 488.223 27.9038 487.029 30.5918C485.877 33.2798 484.277 35.5838 482.229 37.5038C480.181 39.4238 477.791 40.9385 475.061 42.0478C472.373 43.1145 469.493 43.6478 466.421 43.6478C463.135 43.6478 460.17 43.0505 457.525 41.8558C454.922 40.6611 452.703 39.0825 450.869 37.1198C449.077 35.1571 447.69 32.8958 446.709 30.3358C445.727 27.7758 445.237 25.1091 445.237 22.3358C445.237 19.6051 445.727 16.9171 446.709 14.2718C447.69 11.5838 449.119 9.19448 450.997 7.10381C452.917 5.01314 455.242 3.32781 457.973 2.04781C460.703 0.767811 463.818 0.127811 467.317 0.127811ZM467.253 41.4078C470.111 41.2798 472.607 40.6398 474.741 39.4878C476.917 38.2931 478.73 36.7998 480.181 35.0078C481.631 33.1731 482.698 31.1678 483.381 28.9918C484.106 26.8158 484.469 24.6611 484.469 22.5278C484.469 20.1811 484.042 17.8131 483.189 15.4238C482.335 13.0345 481.119 10.8798 479.541 8.95981C477.962 6.99715 476.063 5.41848 473.845 4.22381C471.669 2.98648 469.215 2.36781 466.485 2.36781C463.839 2.36781 461.471 2.96514 459.381 4.15981C457.29 5.31181 455.498 6.80514 454.005 8.63981C452.554 10.4745 451.445 12.5225 450.677 14.7838C449.909 17.0451 449.525 19.2638 449.525 21.4398C449.525 23.7865 449.973 26.1545 450.869 28.5438C451.765 30.8905 453.002 33.0238 454.581 34.9438C456.159 36.8638 458.015 38.4211 460.149 39.6158C462.325 40.8105 464.693 41.4078 467.253 41.4078ZM516.004 0.127811C519.332 0.127811 522.319 0.725145 524.964 1.91981C527.609 3.07181 529.849 4.65048 531.684 6.65581C533.561 8.61848 534.991 10.9225 535.972 13.5678C536.996 16.1705 537.508 18.9011 537.508 21.7598C537.508 24.9598 536.911 27.9038 535.716 30.5918C534.564 33.2798 532.964 35.5838 530.916 37.5038C528.868 39.4238 526.479 40.9385 523.748 42.0478C521.06 43.1145 518.18 43.6478 515.108 43.6478C511.823 43.6478 508.857 43.0505 506.212 41.8558C503.609 40.6611 501.391 39.0825 499.556 37.1198C497.764 35.1571 496.377 32.8958 495.396 30.3358C494.415 27.7758 493.924 25.1091 493.924 22.3358C493.924 19.6051 494.415 16.9171 495.396 14.2718C496.377 11.5838 497.807 9.19448 499.684 7.10381C501.604 5.01314 503.929 3.32781 506.66 2.04781C509.391 0.767811 512.505 0.127811 516.004 0.127811ZM515.94 41.4078C518.799 41.2798 521.295 40.6398 523.428 39.4878C525.604 38.2931 527.417 36.7998 528.868 35.0078C530.319 33.1731 531.385 31.1678 532.068 28.9918C532.793 26.8158 533.156 24.6611 533.156 22.5278C533.156 20.1811 532.729 17.8131 531.876 15.4238C531.023 13.0345 529.807 10.8798 528.228 8.95981C526.649 6.99715 524.751 5.41848 522.532 4.22381C520.356 2.98648 517.903 2.36781 515.172 2.36781C512.527 2.36781 510.159 2.96514 508.068 4.15981C505.977 5.31181 504.185 6.80514 502.692 8.63981C501.241 10.4745 500.132 12.5225 499.364 14.7838C498.596 17.0451 498.212 19.2638 498.212 21.4398C498.212 23.7865 498.66 26.1545 499.556 28.5438C500.452 30.8905 501.689 33.0238 503.268 34.9438C504.847 36.8638 506.703 38.4211 508.836 39.6158C511.012 40.8105 513.38 41.4078 515.94 41.4078ZM551.956 42.3678H552.276V43.0078H543.124V42.3678H543.444C543.785 42.3678 544.084 42.2398 544.34 41.9838C544.596 41.7278 544.809 41.4291 544.98 41.0878C545.193 40.7465 545.342 40.3838 545.428 39.9998C545.513 39.5731 545.556 39.1891 545.556 38.8478V4.73581C545.556 4.43714 545.513 4.09581 545.428 3.71181C545.342 3.32781 545.193 2.96514 544.98 2.62381C544.809 2.28248 544.596 2.00514 544.34 1.79181C544.084 1.53581 543.806 1.40781 543.508 1.40781H543.188V0.767811H552.34V1.40781H552.02C551.678 1.40781 551.38 1.53581 551.124 1.79181C550.868 2.00514 550.633 2.28248 550.42 2.62381C550.249 2.96514 550.1 3.32781 549.972 3.71181C549.886 4.09581 549.844 4.43714 549.844 4.73581V19.5838L566.1 3.45581C566.356 3.15715 566.484 2.81581 566.484 2.43181C566.484 1.74914 566.228 1.40781 565.716 1.40781H565.396V0.767811H573.204V1.40781H572.884C572.286 1.40781 571.668 1.62114 571.028 2.04781C570.388 2.47448 569.748 3.00781 569.108 3.64781L555.668 17.0238L569.812 38.4638C569.854 38.5491 570.046 38.8051 570.388 39.2318C570.729 39.6585 571.134 40.1065 571.604 40.5758C572.116 41.0451 572.67 41.4718 573.268 41.8558C573.908 42.1971 574.548 42.3678 575.188 42.3678V43.0078H573.652C572.372 43.0078 571.284 42.9438 570.388 42.8158C569.534 42.6451 568.788 42.3891 568.148 42.0478C567.508 41.7065 566.932 41.2798 566.42 40.7678C565.95 40.2558 565.46 39.6158 564.948 38.8478L552.532 20.0958L549.844 22.8478V38.8478C549.844 39.1891 549.886 39.5518 549.972 39.9358C550.1 40.3198 550.249 40.7038 550.42 41.0878C550.59 41.4291 550.804 41.7278 551.06 41.9838C551.316 42.2398 551.614 42.3678 551.956 42.3678Z" fill="white"/>
</svg>
