<svg width="40" height="52" viewBox="0 0 40 52" fill="none" xmlns="http://www.w3.org/2000/svg">
<path d="M32.5 1H7.5C5.77609 1 4.12231 1.68433 2.90332 2.90332C1.68433 4.12231 1 5.77609 1 7.5V8H19.5V15H5V20.5H13V27H5V43H1V47.5703C1.00023 49.7372 3.37484 51.0254 5.17578 49.9229L5.34863 49.8086L19.4189 39.7588L20 39.3438L20.5811 39.7588L34.6514 49.8086C36.4716 51.1101 39 49.8092 39 47.5723V7.5L38.9922 7.17773C38.9125 5.57116 38.2395 4.04613 37.0967 2.90332C35.8777 1.68433 34.2239 1 32.5 1Z" fill="black" stroke="white" stroke-width="2"/>
</svg>
