<svg width="256" height="256" viewBox="0 0 256 256" fill="none" xmlns="http://www.w3.org/2000/svg">
<rect width="256" height="256" rx="128" fill="white"/>
<path d="M169.438 45H87.5625C81.3131 45 75.3201 47.4814 70.9014 51.8975C66.4826 56.3135 64 62.3028 64 68.5479V72.457H124.588V90.8223H77.0996V113.37H103.3V130.099H77.0996V182.467H64V199.697C64 208.866 74.3792 214.204 81.8398 208.875V208.874L127.919 175.98L128.5 175.565L129.081 175.98L175.16 208.874V208.875C182.629 214.212 193 208.874 193 199.706V68.5479C193 62.3028 190.517 56.3135 186.099 51.8975C181.68 47.4814 175.687 45 169.438 45Z" fill="black" stroke="white" stroke-width="2"/>
</svg>
