<svg width="556" height="44" viewBox="0 0 556 44" fill="none" xmlns="http://www.w3.org/2000/svg">
<path d="M8.832 42.3678H9.152V43.0078H0V42.3678H0.32C0.661333 42.3678 0.96 42.2611 1.216 42.0478C1.472 41.7918 1.68533 41.4931 1.856 41.1518C2.06933 40.8105 2.21867 40.4478 2.304 40.0638C2.38933 39.6798 2.432 39.3171 2.432 38.9758V4.73581C2.432 4.43714 2.38933 4.09581 2.304 3.71181C2.21867 3.32781 2.09067 2.96514 1.92 2.62381C1.74933 2.28248 1.51467 2.00514 1.216 1.79181C0.96 1.53581 0.661333 1.40781 0.32 1.40781H0V0.767811H24.576V6.71981H23.936C23.936 5.73848 23.5947 4.88514 22.912 4.15981C22.272 3.39181 21.248 3.00781 19.84 3.00781H6.72V19.1998H17.344C18.3253 19.1998 19.136 18.9011 19.776 18.3038C20.4587 17.7065 20.8 17.0025 20.8 16.1918H21.44V24.1918H20.8C20.8 23.4238 20.48 22.7625 19.84 22.2078C19.2 21.6531 18.368 21.3758 17.344 21.3758H6.72V38.9758C6.72 39.3171 6.76267 39.6798 6.848 40.0638C6.93333 40.4478 7.06133 40.8105 7.232 41.1518C7.44533 41.4931 7.68 41.7918 7.936 42.0478C8.192 42.2611 8.49067 42.3678 8.832 42.3678ZM29.6295 0.767811H38.7815V1.40781H38.4615C38.1628 1.40781 37.8855 1.53581 37.6295 1.79181C37.3735 2.00514 37.1602 2.28248 36.9895 2.62381C36.8188 2.92248 36.6695 3.28514 36.5415 3.71181C36.4562 4.09581 36.4135 4.43714 36.4135 4.73581V38.8478C36.4135 39.1891 36.4562 39.5731 36.5415 39.9998C36.6268 40.3838 36.7548 40.7465 36.9255 41.0878C37.1388 41.4291 37.3522 41.7278 37.5655 41.9838C37.8215 42.2398 38.1202 42.3678 38.4615 42.3678H38.7815V43.0078H29.6295V42.3678H29.9495C30.2908 42.3678 30.5895 42.2611 30.8455 42.0478C31.1015 41.7918 31.3148 41.4931 31.4855 41.1518C31.6988 40.7678 31.8482 40.3838 31.9335 39.9998C32.0188 39.5731 32.0615 39.1891 32.0615 38.8478V4.73581C32.0615 4.43714 32.0188 4.09581 31.9335 3.71181C31.8482 3.32781 31.6988 2.96514 31.4855 2.62381C31.3148 2.28248 31.1015 2.00514 30.8455 1.79181C30.5895 1.53581 30.2908 1.40781 29.9495 1.40781H29.6295V0.767811ZM51.656 42.3678H51.976V43.0078H44.872V42.3678H45.192C45.4907 42.3678 45.768 42.2398 46.024 41.9838C46.3227 41.7278 46.5573 41.4291 46.728 41.0878C46.8987 40.7465 47.0267 40.3838 47.112 39.9998C47.24 39.5731 47.304 39.1891 47.304 38.8478V4.73581C47.304 4.43714 47.2613 4.09581 47.176 3.71181C47.1333 3.32781 47.0267 2.96514 46.856 2.62381C46.6853 2.28248 46.4507 2.00514 46.152 1.79181C45.8533 1.53581 45.4907 1.40781 45.064 1.40781H44.744V0.767811H51.208L74.44 37.3758V4.73581C74.44 4.43714 74.376 4.09581 74.248 3.71181C74.1627 3.32781 74.0133 2.96514 73.8 2.62381C73.6293 2.28248 73.416 2.00514 73.16 1.79181C72.904 1.53581 72.6053 1.40781 72.264 1.40781H71.944V0.767811H79.112V1.40781H78.792C78.4507 1.40781 78.152 1.53581 77.896 1.79181C77.64 2.00514 77.4053 2.28248 77.192 2.62381C77.0213 2.96514 76.8933 3.32781 76.808 3.71181C76.7227 4.09581 76.68 4.43714 76.68 4.73581V43.0078H72.712L49.544 6.27181V38.8478C49.544 39.1891 49.5867 39.5731 49.672 39.9998C49.7573 40.3838 49.8853 40.7465 50.056 41.0878C50.2693 41.4291 50.504 41.7278 50.76 41.9838C51.016 42.2398 51.3147 42.3678 51.656 42.3678ZM109.572 42.3678H109.892C110.916 42.3678 111.428 41.8985 111.428 40.9598C111.428 40.6185 111.364 40.2558 111.236 39.8718L105.476 24.3198H94.2755L88.7075 39.6158C88.5795 39.9571 88.5155 40.2771 88.5155 40.5758C88.5155 41.1305 88.6648 41.5785 88.9635 41.9198C89.2622 42.2185 89.5822 42.3678 89.9235 42.3678H90.2435V43.0078H83.1395V42.3678H83.4595C84.0142 42.3678 84.5475 42.0478 85.0595 41.4078C85.6142 40.7251 86.0622 39.9358 86.4035 39.0398L101.059 -0.000190735L115.396 38.6558C115.694 39.5091 116.1 40.3411 116.611 41.1518C117.166 41.9625 117.87 42.3678 118.724 42.3678H119.044V43.0078H109.572V42.3678ZM94.9155 22.1438H104.772L99.8435 8.76781L94.9155 22.1438ZM129.594 42.3678H129.913V43.0078H122.809V42.3678H123.129C123.428 42.3678 123.705 42.2398 123.961 41.9838C124.26 41.7278 124.495 41.4291 124.666 41.0878C124.836 40.7465 124.964 40.3838 125.049 39.9998C125.177 39.5731 125.241 39.1891 125.241 38.8478V4.73581C125.241 4.43714 125.199 4.09581 125.114 3.71181C125.071 3.32781 124.964 2.96514 124.793 2.62381C124.623 2.28248 124.388 2.00514 124.089 1.79181C123.791 1.53581 123.428 1.40781 123.001 1.40781H122.681V0.767811H129.146L152.378 37.3758V4.73581C152.378 4.43714 152.314 4.09581 152.186 3.71181C152.1 3.32781 151.951 2.96514 151.738 2.62381C151.567 2.28248 151.354 2.00514 151.098 1.79181C150.842 1.53581 150.543 1.40781 150.202 1.40781H149.882V0.767811H157.05V1.40781H156.729C156.388 1.40781 156.09 1.53581 155.833 1.79181C155.578 2.00514 155.343 2.28248 155.13 2.62381C154.959 2.96514 154.831 3.32781 154.746 3.71181C154.66 4.09581 154.618 4.43714 154.618 4.73581V43.0078H150.65L127.482 6.27181V38.8478C127.482 39.1891 127.524 39.5731 127.609 39.9998C127.695 40.3838 127.823 40.7465 127.993 41.0878C128.207 41.4291 128.442 41.7278 128.698 41.9838C128.954 42.2398 129.252 42.3678 129.594 42.3678ZM185.589 2.43181C182.432 2.43181 179.68 3.00781 177.333 4.15981C175.029 5.26914 173.109 6.74114 171.573 8.57581C170.037 10.3678 168.885 12.3945 168.117 14.6558C167.392 16.9171 167.029 19.1571 167.029 21.3758C167.029 23.8931 167.52 26.3678 168.501 28.7998C169.482 31.1891 170.826 33.3225 172.533 35.1998C174.282 37.0345 176.309 38.5278 178.613 39.6798C180.917 40.7891 183.413 41.3438 186.101 41.3438C186.869 41.3438 187.765 41.2585 188.789 41.0878C189.856 40.9171 190.901 40.5971 191.925 40.1278C192.949 39.6158 193.888 38.9118 194.741 38.0158C195.637 37.1198 196.32 35.9465 196.789 34.4958H197.429V41.5998C196.789 41.5998 196.106 41.6851 195.381 41.8558C194.698 42.0265 193.93 42.2185 193.077 42.4318C191.968 42.7305 190.73 43.0078 189.365 43.2638C188.042 43.5198 186.634 43.6478 185.141 43.6478C181.429 43.6478 178.165 43.0078 175.349 41.7278C172.533 40.4478 170.186 38.7838 168.309 36.7358C166.432 34.6878 165.024 32.3838 164.085 29.8238C163.146 27.2211 162.677 24.5971 162.677 21.9518C162.677 19.3065 163.146 16.6825 164.085 14.0798C165.024 11.4771 166.453 9.15181 168.373 7.10381C170.293 5.01314 172.704 3.32781 175.605 2.04781C178.506 0.767811 181.92 0.127811 185.845 0.127811C187.253 0.127811 188.512 0.255811 189.621 0.51181C190.773 0.76781 191.797 1.02381 192.693 1.27981C193.333 1.49314 193.909 1.66381 194.421 1.79181C194.976 1.87714 195.509 1.91981 196.021 1.91981V9.02381H195.381C195.125 7.70114 194.656 6.61314 193.973 5.75981C193.29 4.86381 192.48 4.18114 191.541 3.71181C190.645 3.24248 189.664 2.92248 188.597 2.75181C187.573 2.53848 186.57 2.43181 185.589 2.43181ZM203.192 0.767811H212.344V1.40781H212.024C211.725 1.40781 211.448 1.53581 211.192 1.79181C210.936 2.00514 210.723 2.28248 210.552 2.62381C210.381 2.92248 210.232 3.28514 210.104 3.71181C210.019 4.09581 209.976 4.43714 209.976 4.73581V38.8478C209.976 39.1891 210.019 39.5731 210.104 39.9998C210.189 40.3838 210.317 40.7465 210.488 41.0878C210.701 41.4291 210.915 41.7278 211.128 41.9838C211.384 42.2398 211.683 42.3678 212.024 42.3678H212.344V43.0078H203.192V42.3678H203.512C203.853 42.3678 204.152 42.2611 204.408 42.0478C204.664 41.7918 204.877 41.4931 205.048 41.1518C205.261 40.7678 205.411 40.3838 205.496 39.9998C205.581 39.5731 205.624 39.1891 205.624 38.8478V4.73581C205.624 4.43714 205.581 4.09581 205.496 3.71181C205.411 3.32781 205.261 2.96514 205.048 2.62381C204.877 2.28248 204.664 2.00514 204.408 1.79181C204.152 1.53581 203.853 1.40781 203.512 1.40781H203.192V0.767811ZM242.947 42.3678H243.267C244.291 42.3678 244.803 41.8985 244.803 40.9598C244.803 40.6185 244.739 40.2558 244.611 39.8718L238.851 24.3198H227.651L222.082 39.6158C221.955 39.9571 221.891 40.2771 221.891 40.5758C221.891 41.1305 222.04 41.5785 222.339 41.9198C222.637 42.2185 222.957 42.3678 223.299 42.3678H223.618V43.0078H216.514V42.3678H216.834C217.389 42.3678 217.922 42.0478 218.434 41.4078C218.989 40.7251 219.437 39.9358 219.779 39.0398L234.434 -0.000190735L248.771 38.6558C249.069 39.5091 249.475 40.3411 249.986 41.1518C250.541 41.9625 251.245 42.3678 252.099 42.3678H252.419V43.0078H242.947V42.3678ZM228.291 22.1438H238.147L233.219 8.76781L228.291 22.1438ZM256.248 42.3678H256.568C256.91 42.3678 257.208 42.2611 257.464 42.0478C257.72 41.7918 257.934 41.4931 258.104 41.1518C258.318 40.8105 258.467 40.4478 258.552 40.0638C258.681 39.6798 258.745 39.3171 258.745 38.9758V4.73581C258.745 4.43714 258.681 4.09581 258.552 3.71181C258.467 3.32781 258.318 2.96514 258.104 2.62381C257.934 2.28248 257.72 2.00514 257.464 1.79181C257.208 1.53581 256.91 1.40781 256.568 1.40781H256.248V0.767811H265.465V1.40781H265.145C264.803 1.40781 264.505 1.53581 264.248 1.79181C263.992 2.00514 263.779 2.28248 263.609 2.62381C263.438 2.96514 263.289 3.32781 263.161 3.71181C263.075 4.09581 263.033 4.43714 263.033 4.73581V40.6398H277.049C277.859 40.6398 278.563 40.4478 279.161 40.0638C279.758 39.6798 280.249 39.2105 280.633 38.6558C281.059 38.0585 281.358 37.4398 281.529 36.7998C281.742 36.1171 281.849 35.4985 281.849 34.9438H282.489V43.0078H256.248V42.3678ZM304.942 0.127811C308.27 0.127811 311.256 0.725145 313.902 1.91981C316.547 3.07181 318.787 4.65048 320.622 6.65581C322.499 8.61848 323.928 10.9225 324.91 13.5678C325.934 16.1705 326.446 18.9011 326.446 21.7598C326.446 24.9598 325.848 27.9038 324.654 30.5918C323.502 33.2798 321.902 35.5838 319.854 37.5038C317.806 39.4238 315.416 40.9385 312.686 42.0478C309.998 43.1145 307.118 43.6478 304.046 43.6478C300.76 43.6478 297.795 43.0505 295.15 41.8558C292.547 40.6611 290.328 39.0825 288.493 37.1198C286.701 35.1571 285.315 32.8958 284.333 30.3358C283.352 27.7758 282.861 25.1091 282.861 22.3358C282.861 19.6051 283.352 16.9171 284.333 14.2718C285.315 11.5838 286.744 9.19448 288.622 7.10381C290.542 5.01314 292.867 3.32781 295.598 2.04781C298.328 0.767811 301.443 0.127811 304.942 0.127811ZM304.878 41.4078C307.736 41.2798 310.232 40.6398 312.366 39.4878C314.542 38.2931 316.355 36.7998 317.806 35.0078C319.256 33.1731 320.323 31.1678 321.006 28.9918C321.731 26.8158 322.094 24.6611 322.094 22.5278C322.094 20.1811 321.667 17.8131 320.814 15.4238C319.96 13.0345 318.744 10.8798 317.166 8.95981C315.587 6.99715 313.688 5.41848 311.47 4.22381C309.294 2.98648 306.84 2.36781 304.11 2.36781C301.464 2.36781 299.096 2.96514 297.006 4.15981C294.915 5.31181 293.123 6.80514 291.63 8.63981C290.179 10.4745 289.069 12.5225 288.302 14.7838C287.534 17.0451 287.149 19.2638 287.149 21.4398C287.149 23.7865 287.597 26.1545 288.493 28.5438C289.39 30.8905 290.627 33.0238 292.206 34.9438C293.784 36.8638 295.64 38.4211 297.774 39.6158C299.95 40.8105 302.318 41.4078 304.878 41.4078ZM332.061 0.767811H341.149V1.40781H340.829C340.488 1.40781 340.189 1.53581 339.933 1.79181C339.677 2.00514 339.442 2.28248 339.229 2.62381C339.058 2.96514 338.93 3.32781 338.845 3.71181C338.76 4.09581 338.717 4.43714 338.717 4.73581V30.0158C338.717 31.6798 338.888 33.2158 339.229 34.6238C339.57 36.0318 340.146 37.2478 340.957 38.2718C341.768 39.2958 342.834 40.1065 344.157 40.7038C345.48 41.2585 347.101 41.5358 349.021 41.5358C351.154 41.5358 352.861 41.1945 354.141 40.5118C355.421 39.8291 356.402 38.9545 357.085 37.8878C357.768 36.7785 358.216 35.5411 358.429 34.1758C358.642 32.8105 358.749 31.4665 358.749 30.1438V4.73581C358.749 4.43714 358.706 4.09581 358.621 3.71181C358.536 3.32781 358.386 2.96514 358.173 2.62381C358.002 2.28248 357.789 2.00514 357.533 1.79181C357.277 1.53581 357 1.40781 356.701 1.40781H356.381V0.767811H363.357V1.40781H363.037C362.696 1.40781 362.397 1.53581 362.141 1.79181C361.928 2.00514 361.714 2.28248 361.501 2.62381C361.33 2.96514 361.202 3.32781 361.117 3.71181C361.032 4.09581 360.989 4.43714 360.989 4.73581V29.9518C360.989 32.7251 360.648 35.0078 359.965 36.7998C359.282 38.5491 358.344 39.9358 357.149 40.9598C355.954 41.9838 354.546 42.6878 352.925 43.0718C351.346 43.4558 349.661 43.6478 347.869 43.6478C345.949 43.6478 344.157 43.4345 342.493 43.0078C340.872 42.6238 339.464 41.9198 338.269 40.8958C337.074 39.8718 336.136 38.4851 335.453 36.7358C334.77 34.9438 334.429 32.7038 334.429 30.0158V4.73581C334.429 4.43714 334.386 4.09581 334.301 3.71181C334.216 3.32781 334.066 2.96514 333.853 2.62381C333.682 2.28248 333.469 2.00514 333.213 1.79181C332.957 1.53581 332.68 1.40781 332.381 1.40781H332.061V0.767811ZM385.628 42.3678H385.948V43.0078H376.86V42.3678H377.18C377.521 42.3678 377.82 42.2398 378.076 41.9838C378.332 41.7278 378.545 41.4291 378.716 41.0878C378.929 40.7465 379.079 40.3838 379.164 39.9998C379.249 39.5731 379.292 39.1891 379.292 38.8478V3.13581H371.868C371.185 3.13581 370.588 3.28514 370.076 3.58381C369.564 3.88248 369.137 4.26648 368.796 4.73581C368.455 5.16248 368.199 5.65314 368.028 6.20781C367.857 6.71981 367.772 7.23181 367.772 7.74381H367.132V0.767811H395.868V7.74381H395.228C395.228 7.23181 395.143 6.71981 394.972 6.20781C394.801 5.65314 394.545 5.16248 394.204 4.73581C393.863 4.26648 393.436 3.88248 392.924 3.58381C392.412 3.28514 391.815 3.13581 391.132 3.13581H383.58V38.8478C383.58 39.1891 383.623 39.5731 383.708 39.9998C383.793 40.3838 383.921 40.7465 384.092 41.0878C384.305 41.4291 384.519 41.7278 384.732 41.9838C384.988 42.2398 385.287 42.3678 385.628 42.3678ZM399.373 42.3678H399.693C400.035 42.3678 400.333 42.2611 400.589 42.0478C400.845 41.7918 401.059 41.4931 401.229 41.1518C401.443 40.8105 401.592 40.4478 401.677 40.0638C401.806 39.6798 401.87 39.3171 401.87 38.9758V4.73581C401.87 4.43714 401.806 4.09581 401.677 3.71181C401.592 3.32781 401.443 2.96514 401.229 2.62381C401.059 2.28248 400.845 2.00514 400.589 1.79181C400.333 1.53581 400.035 1.40781 399.693 1.40781H399.373V0.767811H408.59V1.40781H408.27C407.928 1.40781 407.63 1.53581 407.373 1.79181C407.117 2.00514 406.904 2.28248 406.734 2.62381C406.563 2.96514 406.414 3.32781 406.286 3.71181C406.2 4.09581 406.158 4.43714 406.158 4.73581V40.6398H420.174C420.984 40.6398 421.688 40.4478 422.286 40.0638C422.883 39.6798 423.374 39.2105 423.758 38.6558C424.184 38.0585 424.483 37.4398 424.654 36.7998C424.867 36.1171 424.974 35.4985 424.974 34.9438H425.614V43.0078H399.373V42.3678ZM448.067 0.127811C451.395 0.127811 454.381 0.725145 457.027 1.91981C459.672 3.07181 461.912 4.65048 463.747 6.65581C465.624 8.61848 467.053 10.9225 468.035 13.5678C469.059 16.1705 469.571 18.9011 469.571 21.7598C469.571 24.9598 468.973 27.9038 467.779 30.5918C466.627 33.2798 465.027 35.5838 462.979 37.5038C460.931 39.4238 458.541 40.9385 455.811 42.0478C453.123 43.1145 450.243 43.6478 447.171 43.6478C443.885 43.6478 440.92 43.0505 438.275 41.8558C435.672 40.6611 433.453 39.0825 431.618 37.1198C429.826 35.1571 428.44 32.8958 427.458 30.3358C426.477 27.7758 425.986 25.1091 425.986 22.3358C425.986 19.6051 426.477 16.9171 427.458 14.2718C428.44 11.5838 429.869 9.19448 431.747 7.10381C433.667 5.01314 435.992 3.32781 438.723 2.04781C441.453 0.767811 444.568 0.127811 448.067 0.127811ZM448.003 41.4078C450.861 41.2798 453.357 40.6398 455.491 39.4878C457.667 38.2931 459.48 36.7998 460.931 35.0078C462.381 33.1731 463.448 31.1678 464.131 28.9918C464.856 26.8158 465.219 24.6611 465.219 22.5278C465.219 20.1811 464.792 17.8131 463.939 15.4238C463.085 13.0345 461.869 10.8798 460.291 8.95981C458.712 6.99715 456.813 5.41848 454.595 4.22381C452.419 2.98648 449.965 2.36781 447.235 2.36781C444.589 2.36781 442.221 2.96514 440.131 4.15981C438.04 5.31181 436.248 6.80514 434.755 8.63981C433.304 10.4745 432.194 12.5225 431.427 14.7838C430.659 17.0451 430.274 19.2638 430.274 21.4398C430.274 23.7865 430.722 26.1545 431.618 28.5438C432.515 30.8905 433.752 33.0238 435.331 34.9438C436.909 36.8638 438.765 38.4211 440.899 39.6158C443.075 40.8105 445.443 41.4078 448.003 41.4078ZM496.754 0.127811C500.082 0.127811 503.069 0.725145 505.714 1.91981C508.359 3.07181 510.599 4.65048 512.434 6.65581C514.311 8.61848 515.741 10.9225 516.722 13.5678C517.746 16.1705 518.258 18.9011 518.258 21.7598C518.258 24.9598 517.661 27.9038 516.466 30.5918C515.314 33.2798 513.714 35.5838 511.666 37.5038C509.618 39.4238 507.229 40.9385 504.498 42.0478C501.81 43.1145 498.93 43.6478 495.858 43.6478C492.573 43.6478 489.607 43.0505 486.962 41.8558C484.359 40.6611 482.141 39.0825 480.306 37.1198C478.514 35.1571 477.127 32.8958 476.146 30.3358C475.165 27.7758 474.674 25.1091 474.674 22.3358C474.674 19.6051 475.165 16.9171 476.146 14.2718C477.127 11.5838 478.557 9.19448 480.434 7.10381C482.354 5.01314 484.679 3.32781 487.41 2.04781C490.141 0.767811 493.255 0.127811 496.754 0.127811ZM496.69 41.4078C499.549 41.2798 502.045 40.6398 504.178 39.4878C506.354 38.2931 508.167 36.7998 509.618 35.0078C511.069 33.1731 512.135 31.1678 512.818 28.9918C513.543 26.8158 513.906 24.6611 513.906 22.5278C513.906 20.1811 513.479 17.8131 512.626 15.4238C511.773 13.0345 510.557 10.8798 508.978 8.95981C507.399 6.99715 505.501 5.41848 503.282 4.22381C501.106 2.98648 498.653 2.36781 495.922 2.36781C493.277 2.36781 490.909 2.96514 488.818 4.15981C486.727 5.31181 484.935 6.80514 483.442 8.63981C481.991 10.4745 480.882 12.5225 480.114 14.7838C479.346 17.0451 478.962 19.2638 478.962 21.4398C478.962 23.7865 479.41 26.1545 480.306 28.5438C481.202 30.8905 482.439 33.0238 484.018 34.9438C485.597 36.8638 487.453 38.4211 489.586 39.6158C491.762 40.8105 494.13 41.4078 496.69 41.4078ZM532.706 42.3678H533.026V43.0078H523.873V42.3678H524.193C524.535 42.3678 524.833 42.2398 525.089 41.9838C525.345 41.7278 525.559 41.4291 525.729 41.0878C525.943 40.7465 526.092 40.3838 526.177 39.9998C526.263 39.5731 526.306 39.1891 526.306 38.8478V4.73581C526.306 4.43714 526.263 4.09581 526.177 3.71181C526.092 3.32781 525.943 2.96514 525.729 2.62381C525.559 2.28248 525.345 2.00514 525.089 1.79181C524.833 1.53581 524.556 1.40781 524.257 1.40781H523.938V0.767811H533.09V1.40781H532.77C532.428 1.40781 532.13 1.53581 531.873 1.79181C531.617 2.00514 531.383 2.28248 531.17 2.62381C530.999 2.96514 530.85 3.32781 530.722 3.71181C530.636 4.09581 530.594 4.43714 530.594 4.73581V19.5838L546.85 3.45581C547.106 3.15715 547.234 2.81581 547.234 2.43181C547.234 1.74914 546.978 1.40781 546.466 1.40781H546.146V0.767811H553.954V1.40781H553.634C553.036 1.40781 552.418 1.62114 551.778 2.04781C551.138 2.47448 550.498 3.00781 549.858 3.64781L536.418 17.0238L550.562 38.4638C550.604 38.5491 550.796 38.8051 551.138 39.2318C551.479 39.6585 551.884 40.1065 552.354 40.5758C552.866 41.0451 553.42 41.4718 554.018 41.8558C554.658 42.1971 555.298 42.3678 555.938 42.3678V43.0078H554.402C553.122 43.0078 552.034 42.9438 551.138 42.8158C550.284 42.6451 549.538 42.3891 548.898 42.0478C548.258 41.7065 547.682 41.2798 547.17 40.7678C546.7 40.2558 546.21 39.6158 545.698 38.8478L533.281 20.0958L530.594 22.8478V38.8478C530.594 39.1891 530.636 39.5518 530.722 39.9358C530.85 40.3198 530.999 40.7038 531.17 41.0878C531.34 41.4291 531.554 41.7278 531.81 41.9838C532.066 42.2398 532.364 42.3678 532.706 42.3678Z" fill="black"/>
</svg>
